<svg id="visual" viewBox="0 0 1536 864" width="1536" height="864" xmlns="http://www.w3.org/2000/svg" xmlns:xlink="http://www.w3.org/1999/xlink" version="1.1"><rect x="0" y="0" width="1536" height="864" fill="#ffffff"></rect><defs><linearGradient id="grad1_0" x1="43.8%" y1="0%" x2="100%" y2="100%"><stop offset="14.444444444444446%" stop-color="#ffffff" stop-opacity="1"></stop><stop offset="85.55555555555554%" stop-color="#ffffff" stop-opacity="1"></stop></linearGradient></defs><defs><linearGradient id="grad2_0" x1="0%" y1="0%" x2="56.3%" y2="100%"><stop offset="14.444444444444446%" stop-color="#ffffff" stop-opacity="1"></stop><stop offset="85.55555555555554%" stop-color="#ffffff" stop-opacity="1"></stop></linearGradient></defs><g transform="translate(1536, 0)"><path d="M0 777.6C-138.6 758.8 -277.2 739.9 -388.8 673.4C-500.4 606.9 -584.9 492.7 -645.2 372.5C-705.5 252.3 -741.5 126.2 -777.6 0L0 0Z" fill="#00ccff"></path></g><g transform="translate(0, 864)"><path d="M0 -777.6C148.5 -764.5 297.1 -751.4 388.8 -673.4C480.5 -595.4 515.4 -452.6 570.7 -329.5C626 -206.4 701.8 -103.2 777.6 0L0 0Z" fill="#00ccff"></path></g></svg>